<mxfile host="app.diagrams.net" modified="2021-05-12T07:46:12.251Z" agent="5.0 (Windows NT 10.0; Win64; x64) AppleWebKit/537.36 (KHTML, like Gecko) Chrome/90.0.4430.212 Safari/537.36" etag="WAp8MC_HHMzdaSZgZF17" version="14.6.6" type="github">
  <diagram name="Page-1" id="90a13364-a465-7bf4-72fc-28e22215d7a0">
    <mxGraphModel dx="1108" dy="1931" grid="1" gridSize="10" guides="1" tooltips="1" connect="1" arrows="1" fold="1" page="1" pageScale="1.5" pageWidth="1169" pageHeight="826" background="#ffffff" math="0" shadow="0">
      <root>
        <mxCell id="0" style=";html=1;" />
        <mxCell id="1" style=";html=1;" parent="0" />
        <mxCell id="uRPZMDTlmhsTQCQ24-Lw-1" value="Component&lt;br&gt;File&lt;br&gt;xxx.Vue&lt;br&gt;&lt;br&gt;역활 및 책임&lt;br&gt;&lt;br&gt;- aixos 호출&lt;br&gt;- data저장&lt;br&gt;- 화면 렌더링&amp;nbsp;&lt;br&gt;- DOM Event handleing" style="rounded=0;whiteSpace=wrap;html=1;" vertex="1" parent="1">
          <mxGeometry x="280" y="1040" width="150" height="210" as="geometry" />
        </mxCell>
        <mxCell id="uRPZMDTlmhsTQCQ24-Lw-11" style="edgeStyle=orthogonalEdgeStyle;rounded=0;orthogonalLoop=1;jettySize=auto;html=1;exitX=1;exitY=0.25;exitDx=0;exitDy=0;entryX=0.437;entryY=1.016;entryDx=0;entryDy=0;entryPerimeter=0;" edge="1" parent="1" source="uRPZMDTlmhsTQCQ24-Lw-2" target="uRPZMDTlmhsTQCQ24-Lw-4">
          <mxGeometry relative="1" as="geometry" />
        </mxCell>
        <mxCell id="uRPZMDTlmhsTQCQ24-Lw-15" value="" style="edgeStyle=orthogonalEdgeStyle;rounded=0;orthogonalLoop=1;jettySize=auto;html=1;" edge="1" parent="1" source="uRPZMDTlmhsTQCQ24-Lw-2" target="uRPZMDTlmhsTQCQ24-Lw-6">
          <mxGeometry relative="1" as="geometry" />
        </mxCell>
        <mxCell id="uRPZMDTlmhsTQCQ24-Lw-16" value="" style="edgeStyle=orthogonalEdgeStyle;rounded=0;orthogonalLoop=1;jettySize=auto;html=1;" edge="1" parent="1" source="uRPZMDTlmhsTQCQ24-Lw-2" target="uRPZMDTlmhsTQCQ24-Lw-3">
          <mxGeometry relative="1" as="geometry" />
        </mxCell>
        <mxCell id="uRPZMDTlmhsTQCQ24-Lw-19" value="" style="edgeStyle=orthogonalEdgeStyle;rounded=0;orthogonalLoop=1;jettySize=auto;html=1;" edge="1" parent="1" source="uRPZMDTlmhsTQCQ24-Lw-2" target="uRPZMDTlmhsTQCQ24-Lw-17">
          <mxGeometry relative="1" as="geometry" />
        </mxCell>
        <mxCell id="uRPZMDTlmhsTQCQ24-Lw-2" value="Component&lt;br&gt;File&lt;br&gt;xxx.Vue&lt;br&gt;&lt;br&gt;역활 및 책임&lt;br&gt;&lt;br&gt;- 화면 렌더링&amp;nbsp;&lt;br&gt;- DOM Event handleing" style="rounded=0;whiteSpace=wrap;html=1;" vertex="1" parent="1">
          <mxGeometry x="280" y="220" width="150" height="210" as="geometry" />
        </mxCell>
        <mxCell id="uRPZMDTlmhsTQCQ24-Lw-3" value="/data&lt;br&gt;&lt;br&gt;- static 한 data저장" style="rounded=0;whiteSpace=wrap;html=1;fillColor=#ffe6cc;strokeColor=#d79b00;" vertex="1" parent="1">
          <mxGeometry x="280" y="80" width="150" height="110" as="geometry" />
        </mxCell>
        <mxCell id="uRPZMDTlmhsTQCQ24-Lw-4" value="/store /state&lt;br&gt;&lt;br&gt;- axios 호출 값&lt;br&gt;- 전역 data" style="rounded=0;whiteSpace=wrap;html=1;fillColor=#ffe6cc;strokeColor=#d79b00;" vertex="1" parent="1">
          <mxGeometry x="460" y="80" width="150" height="110" as="geometry" />
        </mxCell>
        <mxCell id="uRPZMDTlmhsTQCQ24-Lw-5" value="/api /service&lt;br&gt;&lt;br&gt;- axios 호출 및&amp;nbsp; &lt;br&gt;- 에러 헨들링&lt;br&gt;- interceptors" style="rounded=0;whiteSpace=wrap;html=1;fillColor=#f8cecc;strokeColor=#b85450;" vertex="1" parent="1">
          <mxGeometry x="740" y="80" width="150" height="110" as="geometry" />
        </mxCell>
        <mxCell id="uRPZMDTlmhsTQCQ24-Lw-6" value="props&lt;br&gt;&lt;br&gt;- axios 호출 값&lt;br&gt;- 전역 data" style="rounded=0;whiteSpace=wrap;html=1;fillColor=#ffe6cc;strokeColor=#d79b00;" vertex="1" parent="1">
          <mxGeometry x="100" y="270" width="150" height="110" as="geometry" />
        </mxCell>
        <mxCell id="uRPZMDTlmhsTQCQ24-Lw-20" value="" style="edgeStyle=orthogonalEdgeStyle;rounded=0;orthogonalLoop=1;jettySize=auto;html=1;" edge="1" parent="1" source="uRPZMDTlmhsTQCQ24-Lw-17" target="uRPZMDTlmhsTQCQ24-Lw-5">
          <mxGeometry relative="1" as="geometry" />
        </mxCell>
        <mxCell id="uRPZMDTlmhsTQCQ24-Lw-17" value="/store /action&lt;br&gt;&lt;br&gt;- store state조작&lt;br&gt;- service 호출" style="rounded=0;whiteSpace=wrap;html=1;fillColor=#dae8fc;strokeColor=#6c8ebf;" vertex="1" parent="1">
          <mxGeometry x="550" y="270" width="150" height="110" as="geometry" />
        </mxCell>
        <mxCell id="uRPZMDTlmhsTQCQ24-Lw-21" value="" style="rounded=1;whiteSpace=wrap;html=1;glass=0;strokeWidth=2;perimeterSpacing=20;opacity=30;" vertex="1" parent="1">
          <mxGeometry x="440" y="60" width="280" height="340" as="geometry" />
        </mxCell>
        <mxCell id="uRPZMDTlmhsTQCQ24-Lw-22" value="Store" style="shape=callout;whiteSpace=wrap;html=1;perimeter=calloutPerimeter;rounded=1;glass=0;strokeWidth=2;opacity=30;base=0;position2=0.43;" vertex="1" parent="1">
          <mxGeometry x="540" width="70" height="60" as="geometry" />
        </mxCell>
      </root>
    </mxGraphModel>
  </diagram>
</mxfile>
